{
    "asset": {
        "version": "2.0",
        "generator": "goxel"
    },
    "buffers": [
        {
            "byteLength": 112384,
            "uri": "data:application/octet-stream;base64,"
        },
        {
            "byteLength": 10536,
            "uri": "data:application/octet-stream;base64,"
        },
        {
            "byteLength": 85120,
            "uri": "data:application/octet-stream;base64,"
        },
        {
            "byteLength": 7980,
            "uri": "data:application/octet-stream;base64,"
        },
        {
            "byteLength": 73344,
            "uri": "data:application/octet-stream;base64,"
        },
        {
            "byteLength": 6876,
            "uri": "data:application/octet-stream;base64,"
        },
        {
            "byteLength": 29440,
            "uri": "data:application/octet-stream;base64,"
        },
        {
            "byteLength": 2760,
            "uri": "data:application/octet-stream;base64,"
        },
        {
            "byteLength": 30720,
            "uri": "data:application/octet-stream;base64,"
        },
        {
            "byteLength": 2880,
            "uri": "data:application/octet-stream;base64,"
        },
        {
            "byteLength": 20480,
            "uri": "data:application/octet-stream;base64,"
        },
        {
            "byteLength": 1920,
            "uri": "data:application/octet-stream;base64,"
        }
    ],
    "bufferViews": [
        {
            "buffer": 1,
            "byteLength": 10536,
            "target": 34963
        },
        {
            "buffer": 0,
            "byteLength": 112384,
            "byteStride": 32,
            "target": 34962
        },
        {
            "buffer": 3,
            "byteLength": 7980,
            "target": 34963
        },
        {
            "buffer": 2,
            "byteLength": 85120,
            "byteStride": 32,
            "target": 34962
        },
        {
            "buffer": 5,
            "byteLength": 6876,
            "target": 34963
        },
        {
            "buffer": 4,
            "byteLength": 73344,
            "byteStride": 32,
            "target": 34962
        },
        {
            "buffer": 7,
            "byteLength": 2760,
            "target": 34963
        },
        {
            "buffer": 6,
            "byteLength": 29440,
            "byteStride": 32,
            "target": 34962
        },
        {
            "buffer": 9,
            "byteLength": 2880,
            "target": 34963
        },
        {
            "buffer": 8,
            "byteLength": 30720,
            "byteStride": 32,
            "target": 34962
        },
        {
            "buffer": 11,
            "byteLength": 1920,
            "target": 34963
        },
        {
            "buffer": 10,
            "byteLength": 20480,
            "byteStride": 32,
            "target": 34962
        }
    ],
    "meshes": [
        {
            "primitives": [
                {
                    "attributes": {
                        "POSITION": 1,
                        "NORMAL": 2,
                        "TEXCOORD_0": 3
                    },
                    "material": 0,
                    "indices": 0
                }
            ]
        },
        {
            "primitives": [
                {
                    "attributes": {
                        "POSITION": 5,
                        "NORMAL": 6,
                        "TEXCOORD_0": 7
                    },
                    "material": 0,
                    "indices": 4
                }
            ]
        },
        {
            "primitives": [
                {
                    "attributes": {
                        "POSITION": 9,
                        "NORMAL": 10,
                        "TEXCOORD_0": 11
                    },
                    "material": 0,
                    "indices": 8
                }
            ]
        },
        {
            "primitives": [
                {
                    "attributes": {
                        "POSITION": 13,
                        "NORMAL": 14,
                        "TEXCOORD_0": 15
                    },
                    "material": 0,
                    "indices": 12
                }
            ]
        },
        {
            "primitives": [
                {
                    "attributes": {
                        "POSITION": 17,
                        "NORMAL": 18,
                        "TEXCOORD_0": 19
                    },
                    "material": 0,
                    "indices": 16
                }
            ]
        },
        {
            "primitives": [
                {
                    "attributes": {
                        "POSITION": 21,
                        "NORMAL": 22,
                        "TEXCOORD_0": 23
                    },
                    "material": 0,
                    "indices": 20
                }
            ]
        }
    ],
    "accessors": [
        {
            "bufferView": 0,
            "componentType": 5123,
            "count": 5268,
            "type": "SCALAR"
        },
        {
            "bufferView": 1,
            "componentType": 5126,
            "byteOffset": 0,
            "type": "VEC3",
            "count": 3512,
            "min": [
                0.000000000000,
                0.000000000000,
                0.000000000000
            ],
            "max": [
                16.000000000000,
                16.000000000000,
                11.000000000000
            ]
        },
        {
            "bufferView": 1,
            "componentType": 5126,
            "byteOffset": 12,
            "type": "VEC3",
            "count": 3512
        },
        {
            "bufferView": 1,
            "componentType": 5126,
            "byteOffset": 24,
            "type": "VEC2",
            "count": 3512
        },
        {
            "bufferView": 2,
            "componentType": 5123,
            "count": 3990,
            "type": "SCALAR"
        },
        {
            "bufferView": 3,
            "componentType": 5126,
            "byteOffset": 0,
            "type": "VEC3",
            "count": 2660,
            "min": [
                0.000000000000,
                0.000000000000,
                0.000000000000
            ],
            "max": [
                16.000000000000,
                16.000000000000,
                9.000000000000
            ]
        },
        {
            "bufferView": 3,
            "componentType": 5126,
            "byteOffset": 12,
            "type": "VEC3",
            "count": 2660
        },
        {
            "bufferView": 3,
            "componentType": 5126,
            "byteOffset": 24,
            "type": "VEC2",
            "count": 2660
        },
        {
            "bufferView": 4,
            "componentType": 5123,
            "count": 3438,
            "type": "SCALAR"
        },
        {
            "bufferView": 5,
            "componentType": 5126,
            "byteOffset": 0,
            "type": "VEC3",
            "count": 2292,
            "min": [
                0.000000000000,
                0.000000000000,
                0.000000000000
            ],
            "max": [
                9.000000000000,
                16.000000000000,
                11.000000000000
            ]
        },
        {
            "bufferView": 5,
            "componentType": 5126,
            "byteOffset": 12,
            "type": "VEC3",
            "count": 2292
        },
        {
            "bufferView": 5,
            "componentType": 5126,
            "byteOffset": 24,
            "type": "VEC2",
            "count": 2292
        },
        {
            "bufferView": 6,
            "componentType": 5123,
            "count": 1380,
            "type": "SCALAR"
        },
        {
            "bufferView": 7,
            "componentType": 5126,
            "byteOffset": 0,
            "type": "VEC3",
            "count": 920,
            "min": [
                3.000000000000,
                0.000000000000,
                0.000000000000
            ],
            "max": [
                16.000000000000,
                2.000000000000,
                11.000000000000
            ]
        },
        {
            "bufferView": 7,
            "componentType": 5126,
            "byteOffset": 12,
            "type": "VEC3",
            "count": 920
        },
        {
            "bufferView": 7,
            "componentType": 5126,
            "byteOffset": 24,
            "type": "VEC2",
            "count": 920
        },
        {
            "bufferView": 8,
            "componentType": 5123,
            "count": 1440,
            "type": "SCALAR"
        },
        {
            "bufferView": 9,
            "componentType": 5126,
            "byteOffset": 0,
            "type": "VEC3",
            "count": 960,
            "min": [
                0.000000000000,
                0.000000000000,
                0.000000000000
            ],
            "max": [
                16.000000000000,
                2.000000000000,
                10.000000000000
            ]
        },
        {
            "bufferView": 9,
            "componentType": 5126,
            "byteOffset": 12,
            "type": "VEC3",
            "count": 960
        },
        {
            "bufferView": 9,
            "componentType": 5126,
            "byteOffset": 24,
            "type": "VEC2",
            "count": 960
        },
        {
            "bufferView": 10,
            "componentType": 5123,
            "count": 960,
            "type": "SCALAR"
        },
        {
            "bufferView": 11,
            "componentType": 5126,
            "byteOffset": 0,
            "type": "VEC3",
            "count": 640,
            "min": [
                0.000000000000,
                0.000000000000,
                0.000000000000
            ],
            "max": [
                9.000000000000,
                2.000000000000,
                11.000000000000
            ]
        },
        {
            "bufferView": 11,
            "componentType": 5126,
            "byteOffset": 12,
            "type": "VEC3",
            "count": 640
        },
        {
            "bufferView": 11,
            "componentType": 5126,
            "byteOffset": 24,
            "type": "VEC2",
            "count": 640
        }
    ],
    "nodes": [
        {
            "children": [
                1,
                2,
                3,
                4,
                5,
                6
            ],
            "matrix": [
                1,
                0,
                0,
                0,
                0,
                0,
                -1,
                0,
                0,
                1,
                0,
                0,
                0,
                0,
                0,
                1
            ]
        },
        {
            "translation": [
                -16,
                -16,
                0
            ],
            "mesh": 0
        },
        {
            "translation": [
                0,
                -16,
                0
            ],
            "mesh": 1
        },
        {
            "translation": [
                16,
                -16,
                0
            ],
            "mesh": 2
        },
        {
            "translation": [
                -16,
                0,
                0
            ],
            "mesh": 3
        },
        {
            "translation": [
                0,
                0,
                0
            ],
            "mesh": 4
        },
        {
            "translation": [
                16,
                0,
                0
            ],
            "mesh": 5
        }
    ],
    "scenes": [
        {
            "nodes": [
                0
            ]
        }
    ],
    "materials": [
        {
            "name": "Material.1",
            "emissiveFactor": [
                0.000000000000,
                0.000000000000,
                0.000000000000
            ],
            "pbrMetallicRoughness": {
                "baseColorFactor": [
                    1.000000000000,
                    1.000000000000,
                    1.000000000000,
                    1.000000000000
                ],
                "metallicFactor": 0.200000002980,
                "roughnessFactor": 0.500000000000,
                "baseColorTexture": {
                    "index": 0
                }
            }
        }
    ],
    "images": [
        {
            "uri": "data:image/png;base64,"
        }
    ],
    "textures": [
        {
            "source": 0
        }
    ]
}