{
    "asset": {
        "version": "2.0",
        "generator": "goxel"
    },
    "buffers": [
        {
            "byteLength": 53504,
            "uri": "data:application/octet-stream;base64,"
        },
        {
            "byteLength": 5016,
            "uri": "data:application/octet-stream;base64,"
        },
        {
            "byteLength": 67456,
            "uri": "data:application/octet-stream;base64,"
        },
        {
            "byteLength": 6324,
            "uri": "data:application/octet-stream;base64,"
        },
        {
            "byteLength": 52864,
            "uri": "data:application/octet-stream;base64,"
        },
        {
            "byteLength": 4956,
            "uri": "data:application/octet-stream;base64,"
        },
        {
            "byteLength": 44544,
            "uri": "data:application/octet-stream;base64,"
        },
        {
            "byteLength": 4176,
            "uri": "data:application/octet-stream;base64,"
        }
    ],
    "bufferViews": [
        {
            "buffer": 1,
            "byteLength": 5016,
            "target": 34963
        },
        {
            "buffer": 0,
            "byteLength": 53504,
            "byteStride": 32,
            "target": 34962
        },
        {
            "buffer": 3,
            "byteLength": 6324,
            "target": 34963
        },
        {
            "buffer": 2,
            "byteLength": 67456,
            "byteStride": 32,
            "target": 34962
        },
        {
            "buffer": 5,
            "byteLength": 4956,
            "target": 34963
        },
        {
            "buffer": 4,
            "byteLength": 52864,
            "byteStride": 32,
            "target": 34962
        },
        {
            "buffer": 7,
            "byteLength": 4176,
            "target": 34963
        },
        {
            "buffer": 6,
            "byteLength": 44544,
            "byteStride": 32,
            "target": 34962
        }
    ],
    "meshes": [
        {
            "primitives": [
                {
                    "attributes": {
                        "POSITION": 1,
                        "NORMAL": 2,
                        "TEXCOORD_0": 3
                    },
                    "material": 0,
                    "indices": 0
                }
            ]
        },
        {
            "primitives": [
                {
                    "attributes": {
                        "POSITION": 5,
                        "NORMAL": 6,
                        "TEXCOORD_0": 7
                    },
                    "material": 0,
                    "indices": 4
                }
            ]
        },
        {
            "primitives": [
                {
                    "attributes": {
                        "POSITION": 9,
                        "NORMAL": 10,
                        "TEXCOORD_0": 11
                    },
                    "material": 0,
                    "indices": 8
                }
            ]
        },
        {
            "primitives": [
                {
                    "attributes": {
                        "POSITION": 13,
                        "NORMAL": 14,
                        "TEXCOORD_0": 15
                    },
                    "material": 0,
                    "indices": 12
                }
            ]
        }
    ],
    "accessors": [
        {
            "bufferView": 0,
            "componentType": 5123,
            "count": 2508,
            "type": "SCALAR"
        },
        {
            "bufferView": 1,
            "componentType": 5126,
            "byteOffset": 0,
            "type": "VEC3",
            "count": 1672,
            "min": [
                11.000000000000,
                1.000000000000,
                0.000000000000
            ],
            "max": [
                16.000000000000,
                16.000000000000,
                13.000000000000
            ]
        },
        {
            "bufferView": 1,
            "componentType": 5126,
            "byteOffset": 12,
            "type": "VEC3",
            "count": 1672
        },
        {
            "bufferView": 1,
            "componentType": 5126,
            "byteOffset": 24,
            "type": "VEC2",
            "count": 1672
        },
        {
            "bufferView": 2,
            "componentType": 5123,
            "count": 3162,
            "type": "SCALAR"
        },
        {
            "bufferView": 3,
            "componentType": 5126,
            "byteOffset": 0,
            "type": "VEC3",
            "count": 2108,
            "min": [
                0.000000000000,
                1.000000000000,
                0.000000000000
            ],
            "max": [
                8.000000000000,
                16.000000000000,
                13.000000000000
            ]
        },
        {
            "bufferView": 3,
            "componentType": 5126,
            "byteOffset": 12,
            "type": "VEC3",
            "count": 2108
        },
        {
            "bufferView": 3,
            "componentType": 5126,
            "byteOffset": 24,
            "type": "VEC2",
            "count": 2108
        },
        {
            "bufferView": 4,
            "componentType": 5123,
            "count": 2478,
            "type": "SCALAR"
        },
        {
            "bufferView": 5,
            "componentType": 5126,
            "byteOffset": 0,
            "type": "VEC3",
            "count": 1652,
            "min": [
                11.000000000000,
                0.000000000000,
                0.000000000000
            ],
            "max": [
                16.000000000000,
                12.000000000000,
                13.000000000000
            ]
        },
        {
            "bufferView": 5,
            "componentType": 5126,
            "byteOffset": 12,
            "type": "VEC3",
            "count": 1652
        },
        {
            "bufferView": 5,
            "componentType": 5126,
            "byteOffset": 24,
            "type": "VEC2",
            "count": 1652
        },
        {
            "bufferView": 6,
            "componentType": 5123,
            "count": 2088,
            "type": "SCALAR"
        },
        {
            "bufferView": 7,
            "componentType": 5126,
            "byteOffset": 0,
            "type": "VEC3",
            "count": 1392,
            "min": [
                0.000000000000,
                0.000000000000,
                0.000000000000
            ],
            "max": [
                8.000000000000,
                12.000000000000,
                13.000000000000
            ]
        },
        {
            "bufferView": 7,
            "componentType": 5126,
            "byteOffset": 12,
            "type": "VEC3",
            "count": 1392
        },
        {
            "bufferView": 7,
            "componentType": 5126,
            "byteOffset": 24,
            "type": "VEC2",
            "count": 1392
        }
    ],
    "nodes": [
        {
            "children": [
                1,
                2,
                3,
                4
            ],
            "matrix": [
                1,
                0,
                0,
                0,
                0,
                0,
                -1,
                0,
                0,
                1,
                0,
                0,
                0,
                0,
                0,
                1
            ]
        },
        {
            "translation": [
                -16,
                -16,
                0
            ],
            "mesh": 0
        },
        {
            "translation": [
                0,
                -16,
                0
            ],
            "mesh": 1
        },
        {
            "translation": [
                -16,
                0,
                0
            ],
            "mesh": 2
        },
        {
            "translation": [
                0,
                0,
                0
            ],
            "mesh": 3
        }
    ],
    "scenes": [
        {
            "nodes": [
                0
            ]
        }
    ],
    "materials": [
        {
            "name": "Material.1",
            "emissiveFactor": [
                0.000000000000,
                0.000000000000,
                0.000000000000
            ],
            "pbrMetallicRoughness": {
                "baseColorFactor": [
                    1.000000000000,
                    1.000000000000,
                    1.000000000000,
                    1.000000000000
                ],
                "metallicFactor": 0.200000002980,
                "roughnessFactor": 0.500000000000,
                "baseColorTexture": {
                    "index": 0
                }
            }
        }
    ],
    "images": [
        {
            "uri": "data:image/png;base64,"
        }
    ],
    "textures": [
        {
            "source": 0
        }
    ]
}