{
    "asset": {
        "version": "2.0",
        "generator": "goxel"
    },
    "buffers": [
        {
            "byteLength": 51712,
            "uri": "data:application/octet-stream;base64,"
        },
        {
            "byteLength": 4848,
            "uri": "data:application/octet-stream;base64,"
        }
    ],
    "bufferViews": [
        {
            "buffer": 1,
            "byteLength": 4848,
            "target": 34963
        },
        {
            "buffer": 0,
            "byteLength": 51712,
            "byteStride": 32,
            "target": 34962
        }
    ],
    "meshes": [
        {
            "primitives": [
                {
                    "attributes": {
                        "POSITION": 1,
                        "NORMAL": 2,
                        "TEXCOORD_0": 3
                    },
                    "material": 0,
                    "indices": 0
                }
            ]
        }
    ],
    "accessors": [
        {
            "bufferView": 0,
            "componentType": 5123,
            "count": 2424,
            "type": "SCALAR"
        },
        {
            "bufferView": 1,
            "componentType": 5126,
            "byteOffset": 0,
            "type": "VEC3",
            "count": 1616,
            "min": [
                3.000000000000,
                2.000000000000,
                0.000000000000
            ],
            "max": [
                9.000000000000,
                14.000000000000,
                11.000000000000
            ]
        },
        {
            "bufferView": 1,
            "componentType": 5126,
            "byteOffset": 12,
            "type": "VEC3",
            "count": 1616
        },
        {
            "bufferView": 1,
            "componentType": 5126,
            "byteOffset": 24,
            "type": "VEC2",
            "count": 1616
        }
    ],
    "nodes": [
        {
            "children": [
                1
            ],
            "matrix": [
                1,
                0,
                0,
                0,
                0,
                0,
                -1,
                0,
                0,
                1,
                0,
                0,
                0,
                0,
                0,
                1
            ]
        },
        {
            "translation": [
                0,
                0,
                0
            ],
            "mesh": 0
        }
    ],
    "scenes": [
        {
            "nodes": [
                0
            ]
        }
    ],
    "materials": [
        {
            "name": "Material.1",
            "emissiveFactor": [
                0.000000000000,
                0.000000000000,
                0.000000000000
            ],
            "pbrMetallicRoughness": {
                "baseColorFactor": [
                    1.000000000000,
                    1.000000000000,
                    1.000000000000,
                    1.000000000000
                ],
                "metallicFactor": 0.200000002980,
                "roughnessFactor": 0.500000000000,
                "baseColorTexture": {
                    "index": 0
                }
            }
        }
    ],
    "images": [
        {
            "uri": "data:image/png;base64,"
        }
    ],
    "textures": [
        {
            "source": 0
        }
    ]
}