{
    "asset": {
        "version": "2.0",
        "generator": "goxel"
    },
    "buffers": [
        {
            "byteLength": 150528,
            "uri": "data:application/octet-stream;base64,"
        },
        {
            "byteLength": 14112,
            "uri": "data:application/octet-stream;base64,"
        },
        {
            "byteLength": 19968,
            "uri": "data:application/octet-stream;base64,"
        },
        {
            "byteLength": 1872,
            "uri": "data:application/octet-stream;base64,"
        },
        {
            "byteLength": 155904,
            "uri": "data:application/octet-stream;base64,"
        },
        {
            "byteLength": 14616,
            "uri": "data:application/octet-stream;base64,"
        },
        {
            "byteLength": 95488,
            "uri": "data:application/octet-stream;base64,"
        },
        {
            "byteLength": 8952,
            "uri": "data:application/octet-stream;base64,"
        },
        {
            "byteLength": 19456,
            "uri": "data:application/octet-stream;base64,"
        },
        {
            "byteLength": 1824,
            "uri": "data:application/octet-stream;base64,"
        },
        {
            "byteLength": 114944,
            "uri": "data:application/octet-stream;base64,"
        },
        {
            "byteLength": 10776,
            "uri": "data:application/octet-stream;base64,"
        },
        {
            "byteLength": 48896,
            "uri": "data:application/octet-stream;base64,"
        },
        {
            "byteLength": 4584,
            "uri": "data:application/octet-stream;base64,"
        },
        {
            "byteLength": 14848,
            "uri": "data:application/octet-stream;base64,"
        },
        {
            "byteLength": 1392,
            "uri": "data:application/octet-stream;base64,"
        }
    ],
    "bufferViews": [
        {
            "buffer": 1,
            "byteLength": 14112,
            "target": 34963
        },
        {
            "buffer": 0,
            "byteLength": 150528,
            "byteStride": 32,
            "target": 34962
        },
        {
            "buffer": 3,
            "byteLength": 1872,
            "target": 34963
        },
        {
            "buffer": 2,
            "byteLength": 19968,
            "byteStride": 32,
            "target": 34962
        },
        {
            "buffer": 5,
            "byteLength": 14616,
            "target": 34963
        },
        {
            "buffer": 4,
            "byteLength": 155904,
            "byteStride": 32,
            "target": 34962
        },
        {
            "buffer": 7,
            "byteLength": 8952,
            "target": 34963
        },
        {
            "buffer": 6,
            "byteLength": 95488,
            "byteStride": 32,
            "target": 34962
        },
        {
            "buffer": 9,
            "byteLength": 1824,
            "target": 34963
        },
        {
            "buffer": 8,
            "byteLength": 19456,
            "byteStride": 32,
            "target": 34962
        },
        {
            "buffer": 11,
            "byteLength": 10776,
            "target": 34963
        },
        {
            "buffer": 10,
            "byteLength": 114944,
            "byteStride": 32,
            "target": 34962
        },
        {
            "buffer": 13,
            "byteLength": 4584,
            "target": 34963
        },
        {
            "buffer": 12,
            "byteLength": 48896,
            "byteStride": 32,
            "target": 34962
        },
        {
            "buffer": 15,
            "byteLength": 1392,
            "target": 34963
        },
        {
            "buffer": 14,
            "byteLength": 14848,
            "byteStride": 32,
            "target": 34962
        }
    ],
    "meshes": [
        {
            "primitives": [
                {
                    "attributes": {
                        "POSITION": 1,
                        "NORMAL": 2,
                        "TEXCOORD_0": 3
                    },
                    "material": 0,
                    "indices": 0
                }
            ]
        },
        {
            "primitives": [
                {
                    "attributes": {
                        "POSITION": 5,
                        "NORMAL": 6,
                        "TEXCOORD_0": 7
                    },
                    "material": 0,
                    "indices": 4
                }
            ]
        },
        {
            "primitives": [
                {
                    "attributes": {
                        "POSITION": 9,
                        "NORMAL": 10,
                        "TEXCOORD_0": 11
                    },
                    "material": 0,
                    "indices": 8
                }
            ]
        },
        {
            "primitives": [
                {
                    "attributes": {
                        "POSITION": 13,
                        "NORMAL": 14,
                        "TEXCOORD_0": 15
                    },
                    "material": 0,
                    "indices": 12
                }
            ]
        },
        {
            "primitives": [
                {
                    "attributes": {
                        "POSITION": 17,
                        "NORMAL": 18,
                        "TEXCOORD_0": 19
                    },
                    "material": 0,
                    "indices": 16
                }
            ]
        },
        {
            "primitives": [
                {
                    "attributes": {
                        "POSITION": 21,
                        "NORMAL": 22,
                        "TEXCOORD_0": 23
                    },
                    "material": 0,
                    "indices": 20
                }
            ]
        },
        {
            "primitives": [
                {
                    "attributes": {
                        "POSITION": 25,
                        "NORMAL": 26,
                        "TEXCOORD_0": 27
                    },
                    "material": 0,
                    "indices": 24
                }
            ]
        },
        {
            "primitives": [
                {
                    "attributes": {
                        "POSITION": 29,
                        "NORMAL": 30,
                        "TEXCOORD_0": 31
                    },
                    "material": 0,
                    "indices": 28
                }
            ]
        }
    ],
    "accessors": [
        {
            "bufferView": 0,
            "componentType": 5123,
            "count": 7056,
            "type": "SCALAR"
        },
        {
            "bufferView": 1,
            "componentType": 5126,
            "byteOffset": 0,
            "type": "VEC3",
            "count": 4704,
            "min": [
                0.000000000000,
                0.000000000000,
                0.000000000000
            ],
            "max": [
                8.000000000000,
                16.000000000000,
                16.000000000000
            ]
        },
        {
            "bufferView": 1,
            "componentType": 5126,
            "byteOffset": 12,
            "type": "VEC3",
            "count": 4704
        },
        {
            "bufferView": 1,
            "componentType": 5126,
            "byteOffset": 24,
            "type": "VEC2",
            "count": 4704
        },
        {
            "bufferView": 2,
            "componentType": 5123,
            "count": 936,
            "type": "SCALAR"
        },
        {
            "bufferView": 3,
            "componentType": 5126,
            "byteOffset": 0,
            "type": "VEC3",
            "count": 624,
            "min": [
                0.000000000000,
                0.000000000000,
                0.000000000000
            ],
            "max": [
                7.000000000000,
                1.000000000000,
                16.000000000000
            ]
        },
        {
            "bufferView": 3,
            "componentType": 5126,
            "byteOffset": 12,
            "type": "VEC3",
            "count": 624
        },
        {
            "bufferView": 3,
            "componentType": 5126,
            "byteOffset": 24,
            "type": "VEC2",
            "count": 624
        },
        {
            "bufferView": 4,
            "componentType": 5123,
            "count": 7308,
            "type": "SCALAR"
        },
        {
            "bufferView": 5,
            "componentType": 5126,
            "byteOffset": 0,
            "type": "VEC3",
            "count": 4872,
            "min": [
                0.000000000000,
                0.000000000000,
                0.000000000000
            ],
            "max": [
                7.000000000000,
                16.000000000000,
                16.000000000000
            ]
        },
        {
            "bufferView": 5,
            "componentType": 5126,
            "byteOffset": 12,
            "type": "VEC3",
            "count": 4872
        },
        {
            "bufferView": 5,
            "componentType": 5126,
            "byteOffset": 24,
            "type": "VEC2",
            "count": 4872
        },
        {
            "bufferView": 6,
            "componentType": 5123,
            "count": 4476,
            "type": "SCALAR"
        },
        {
            "bufferView": 7,
            "componentType": 5126,
            "byteOffset": 0,
            "type": "VEC3",
            "count": 2984,
            "min": [
                0.000000000000,
                0.000000000000,
                0.000000000000
            ],
            "max": [
                7.000000000000,
                16.000000000000,
                16.000000000000
            ]
        },
        {
            "bufferView": 7,
            "componentType": 5126,
            "byteOffset": 12,
            "type": "VEC3",
            "count": 2984
        },
        {
            "bufferView": 7,
            "componentType": 5126,
            "byteOffset": 24,
            "type": "VEC2",
            "count": 2984
        },
        {
            "bufferView": 8,
            "componentType": 5123,
            "count": 912,
            "type": "SCALAR"
        },
        {
            "bufferView": 9,
            "componentType": 5126,
            "byteOffset": 0,
            "type": "VEC3",
            "count": 608,
            "min": [
                0.000000000000,
                0.000000000000,
                3.000000000000
            ],
            "max": [
                6.000000000000,
                2.000000000000,
                16.000000000000
            ]
        },
        {
            "bufferView": 9,
            "componentType": 5126,
            "byteOffset": 12,
            "type": "VEC3",
            "count": 608
        },
        {
            "bufferView": 9,
            "componentType": 5126,
            "byteOffset": 24,
            "type": "VEC2",
            "count": 608
        },
        {
            "bufferView": 10,
            "componentType": 5123,
            "count": 5388,
            "type": "SCALAR"
        },
        {
            "bufferView": 11,
            "componentType": 5126,
            "byteOffset": 0,
            "type": "VEC3",
            "count": 3592,
            "min": [
                0.000000000000,
                0.000000000000,
                0.000000000000
            ],
            "max": [
                6.000000000000,
                16.000000000000,
                15.000000000000
            ]
        },
        {
            "bufferView": 11,
            "componentType": 5126,
            "byteOffset": 12,
            "type": "VEC3",
            "count": 3592
        },
        {
            "bufferView": 11,
            "componentType": 5126,
            "byteOffset": 24,
            "type": "VEC2",
            "count": 3592
        },
        {
            "bufferView": 12,
            "componentType": 5123,
            "count": 2292,
            "type": "SCALAR"
        },
        {
            "bufferView": 13,
            "componentType": 5126,
            "byteOffset": 0,
            "type": "VEC3",
            "count": 1528,
            "min": [
                0.000000000000,
                0.000000000000,
                0.000000000000
            ],
            "max": [
                6.000000000000,
                16.000000000000,
                10.000000000000
            ]
        },
        {
            "bufferView": 13,
            "componentType": 5126,
            "byteOffset": 12,
            "type": "VEC3",
            "count": 1528
        },
        {
            "bufferView": 13,
            "componentType": 5126,
            "byteOffset": 24,
            "type": "VEC2",
            "count": 1528
        },
        {
            "bufferView": 14,
            "componentType": 5123,
            "count": 696,
            "type": "SCALAR"
        },
        {
            "bufferView": 15,
            "componentType": 5126,
            "byteOffset": 0,
            "type": "VEC3",
            "count": 464,
            "min": [
                0.000000000000,
                0.000000000000,
                0.000000000000
            ],
            "max": [
                6.000000000000,
                2.000000000000,
                10.000000000000
            ]
        },
        {
            "bufferView": 15,
            "componentType": 5126,
            "byteOffset": 12,
            "type": "VEC3",
            "count": 464
        },
        {
            "bufferView": 15,
            "componentType": 5126,
            "byteOffset": 24,
            "type": "VEC2",
            "count": 464
        }
    ],
    "nodes": [
        {
            "children": [
                1,
                2,
                3,
                4,
                5,
                6,
                7,
                8
            ],
            "matrix": [
                1,
                0,
                0,
                0,
                0,
                0,
                -1,
                0,
                0,
                1,
                0,
                0,
                0,
                0,
                0,
                1
            ]
        },
        {
            "translation": [
                -16,
                -16,
                0
            ],
            "mesh": 0
        },
        {
            "translation": [
                -16,
                0,
                0
            ],
            "mesh": 1
        },
        {
            "translation": [
                -16,
                -16,
                16
            ],
            "mesh": 2
        },
        {
            "translation": [
                -16,
                0,
                16
            ],
            "mesh": 3
        },
        {
            "translation": [
                -16,
                16,
                16
            ],
            "mesh": 4
        },
        {
            "translation": [
                -16,
                -16,
                32
            ],
            "mesh": 5
        },
        {
            "translation": [
                -16,
                0,
                32
            ],
            "mesh": 6
        },
        {
            "translation": [
                -16,
                16,
                32
            ],
            "mesh": 7
        }
    ],
    "scenes": [
        {
            "nodes": [
                0
            ]
        }
    ],
    "materials": [
        {
            "name": "Material.1",
            "emissiveFactor": [
                0.000000000000,
                0.000000000000,
                0.000000000000
            ],
            "pbrMetallicRoughness": {
                "baseColorFactor": [
                    1.000000000000,
                    1.000000000000,
                    1.000000000000,
                    1.000000000000
                ],
                "metallicFactor": 0.200000002980,
                "roughnessFactor": 0.500000000000,
                "baseColorTexture": {
                    "index": 0
                }
            }
        }
    ],
    "images": [
        {
            "uri": "data:image/png;base64,"
        }
    ],
    "textures": [
        {
            "source": 0
        }
    ]
}